<?xml version="1.0" encoding="UTF-8"?>
<svg version="1.1" xmlns="http://www.w3.org/2000/svg" width="1024" height="1024">
<path d="M0 0 C4.32847876 0.00230025 8.65695381 -0.00124845 12.98543179 -0.00397992 C21.43523849 -0.008391 29.88503623 -0.0074812 38.33484326 -0.00456728 C45.22831397 -0.00229071 52.1217822 -0.0020104 59.01525319 -0.0030911 C60.00388426 -0.00324433 60.99251534 -0.00339756 62.01110494 -0.00355544 C64.02107229 -0.00387525 66.03103965 -0.00419946 68.041007 -0.00452803 C86.83183719 -0.00737025 105.62266248 -0.00411771 124.41349187 0.00127234 C140.41223628 0.00572041 156.41097341 0.00497855 172.40971768 0.00035357 C191.10044428 -0.00504728 209.79116657 -0.00707612 228.48189384 -0.00403416 C230.49191499 -0.00371572 232.50193614 -0.00340134 234.51195729 -0.0030911 C235.50020189 -0.00293682 236.4884465 -0.00278255 237.5066379 -0.0026236 C244.34942699 -0.00177339 251.19221322 -0.00321362 258.03500187 -0.00557065 C328.23050945 -0.02716137 328.23050945 -0.02716137 357.0965991 0.40314007 C359.25069019 0.43446033 361.40484385 0.46183025 363.55904365 0.48447084 C381.07787376 0.68089588 399.10305322 1.65679037 415.94511807 6.88072467 C416.80113614 7.13676471 417.6571542 7.39280475 418.53911221 7.65660357 C454.68583362 18.82892045 483.31751838 42.82020205 501.07402432 76.17369342 C513.50307519 100.37639153 517.04435943 126.73095052 517.38652432 153.63463092 C517.40744576 155.08846524 517.42853439 156.54229716 517.449772 157.99612689 C517.5188366 162.89506956 517.57631926 167.79412112 517.63261807 172.69322467 C517.64295826 173.56868442 517.65329846 174.44414416 517.66395199 175.34613299 C518.32410598 231.48279295 518.22535518 287.62242494 518.08976781 343.76170576 C518.07317537 350.68958004 518.0584107 357.61745725 518.04405606 364.54533648 C517.99090978 389.90450791 517.92353623 415.2635819 517.83118832 440.62264323 C517.82266275 442.97083667 517.81415088 445.31903016 517.80565274 447.66722369 C517.80145321 448.82714159 517.79725369 449.98705948 517.79292691 451.1821264 C517.76416648 459.32355215 517.7426566 467.46497758 517.72423184 475.60643268 C517.70139542 485.63239478 517.6679079 495.65825745 517.62161714 505.68413967 C517.59797751 510.86263058 517.57887223 516.04102752 517.57246983 521.21957088 C517.50093563 572.22096126 512.76057947 619.52228205 475.69511807 657.88072467 C437.7954918 694.39051979 388.15784471 699.07703848 338.00371182 699.44713092 C335.62903918 699.46775166 333.25436979 699.48874927 330.87970364 699.51010394 C324.68705798 699.56479677 318.49438217 699.61443452 312.30168545 699.66295123 C305.95949569 699.71355652 299.61734868 699.769037 293.27519619 699.82408404 C280.87354017 699.93101798 268.47184672 700.03260146 256.07011807 700.13072467 C256.07011807 700.46072467 256.07011807 700.79072467 256.07011807 701.13072467 C254.42011807 701.13072467 252.77011807 701.13072467 251.07011807 701.13072467 C251.07011807 700.80072467 251.07011807 700.47072467 251.07011807 700.13072467 C250.45865516 700.12974786 249.84719225 700.12877105 249.21720016 700.12776464 C212.85754193 700.06930483 176.49794509 699.99536785 140.13835983 699.90173839 C135.75819098 699.89047222 131.37802182 699.87933344 126.99785244 699.8682735 C126.12595639 699.86606981 125.25406034 699.86386613 124.3557432 699.86159567 C110.29704012 699.8263656 96.23833707 699.8014212 82.17960641 699.78037765 C67.71979761 699.75850103 53.26004534 699.72534001 38.80028474 699.68202311 C29.90075189 699.65570895 21.00128928 699.63786532 12.10171953 699.63137863 C5.97251396 699.62606199 -0.15660376 699.60963974 -6.28576198 699.58505901 C-9.80513641 699.57125482 -13.32435442 699.56179166 -16.84375751 699.56571651 C-39.61330929 699.5757021 -62.75449401 698.85726345 -84.92988193 693.19322467 C-85.94308506 692.95410357 -86.95628818 692.71498248 -88.00019443 692.46861529 C-98.59323259 689.90163226 -108.69044675 686.68407824 -118.30488193 681.50572467 C-119.10998203 681.07840045 -119.91508213 680.65107623 -120.7445792 680.21080279 C-127.25312424 676.67488261 -133.24161137 672.62263296 -139.14472568 668.16197467 C-141.74085894 666.14419485 -141.74085894 666.14419485 -144.11347568 665.06431842 C-146.32760708 663.9263025 -147.47055664 662.60794945 -149.05488193 660.69322467 C-151.94281066 657.26497379 -154.93260786 653.96925345 -157.99238193 650.69322467 C-161.69299661 646.65516792 -164.83965969 642.59010646 -167.67597568 637.90806842 C-168.97466071 635.84079009 -168.97466071 635.84079009 -171.92988193 634.13072467 C-171.92988193 633.14072467 -171.92988193 632.15072467 -171.92988193 631.13072467 C-173.19087301 628.92758081 -174.48101657 626.81424518 -175.86738193 624.69322467 C-180.0980579 618.19741995 -180.0980579 618.19741995 -180.92988193 614.13072467 C-181.5981472 612.31921174 -182.2676765 610.50813582 -182.94843662 608.70128131 C-197.01131565 570.91918596 -194.08902828 528.94011233 -194.23320496 489.30942845 C-194.25550131 483.42630991 -194.28271225 477.54321371 -194.3092612 471.6601131 C-194.35332443 461.74358939 -194.39409103 451.82705672 -194.43256748 441.91050982 C-194.47148848 431.88250191 -194.51297226 421.85450977 -194.55756748 411.82652545 C-194.56301145 410.60213425 -194.56845543 409.37774305 -194.57406437 408.11624908 C-194.57949812 406.89466056 -194.58493187 405.67307203 -194.59053028 404.41446567 C-195.22113975 262.62311641 -195.22113975 262.62311641 -194.61249912 199.37486529 C-194.56160248 194.03837951 -194.52243363 188.70186432 -194.48529613 183.36526752 C-194.45365676 179.10966362 -194.41382744 174.85416368 -194.37181842 170.59865069 C-194.35369186 168.62795279 -194.33844177 166.6572256 -194.32653797 164.68648028 C-194.2180724 147.50523277 -193.20187659 130.43683497 -189.74238193 113.56822467 C-189.52807529 112.52086139 -189.31376865 111.47349811 -189.09296787 110.39439654 C-184.66709381 89.84882561 -176.02034663 70.62725203 -162.92988193 54.13072467 C-162.25570224 53.24256061 -161.58152256 52.35439654 -160.88691318 51.43931842 C-137.73047138 21.7872627 -102.63176198 6.62002971 -65.97975785 1.87844145 C-44.17410093 -0.70597972 -21.92962535 -0.01730996 0 0 Z " fill="#D33884" transform="translate(348.92988193035126,162.8692753314972)"/>
<path d="M0 0 C0.83789062 -0.020625 1.67578125 -0.04125 2.5390625 -0.0625 C7.64983364 -0.09464321 11.23241534 0.33974267 15.625 3.25 C17.625 6.25 17.625 6.25 17.5546875 8.80078125 C15.99174374 14.59943394 13.1011468 19.77219745 10.39453125 25.11132812 C6.15686465 33.69291549 1.3758231 44.48726839 3.625 54.25 C5.53322074 57.38989049 7.94747026 59.7550291 10.625 62.25 C21.77911782 72.9684101 29.02210673 85.52321729 36.1328125 99.13671875 C38.98462458 104.56233607 41.55476698 108.22658899 47.625 110.25 C49.18108614 110.36293469 50.74095499 110.42776589 52.30078125 110.4609375 C53.21150391 110.48929687 54.12222656 110.51765625 55.06054688 110.546875 C56.96660823 110.59863498 58.87288584 110.64300055 60.77929688 110.6796875 C66.87506601 110.88588688 71.83054487 111.29473927 76.25523376 115.9740448 C78.02956332 118.92220812 78.02475726 120.94409638 78.06079102 124.3762207 C78.07993057 125.61463211 78.09907013 126.85304352 78.11878967 128.12898254 C78.12337682 129.47791186 78.12671811 130.82684591 78.12890625 132.17578125 C78.13855304 133.56577359 78.14864594 134.95576289 78.15916443 136.3457489 C78.17711312 139.25848444 78.18268699 142.17095331 78.1809082 145.08374023 C78.1806038 148.80313397 78.22151471 152.52080337 78.27322483 156.23978901 C78.30670788 159.11132032 78.31266216 161.98244048 78.31107903 164.85414696 C78.31460271 166.22442747 78.32778033 167.5947205 78.35107613 168.96480751 C78.53634196 180.98850386 78.53634196 180.98850386 74.78173828 185.54516602 C71.8515354 188.40879558 68.88236852 189.71760296 64.9375 190.875 C64.30465088 191.06827881 63.67180176 191.26155762 63.01977539 191.46069336 C59.25103874 192.58654954 55.44465976 193.55936024 51.6328125 194.52734375 C50.36957153 194.85001221 50.36957153 194.85001221 49.08081055 195.17919922 C47.43987442 195.59185926 45.79554196 195.99130955 44.14770508 196.37548828 C37.35676137 198.04071705 32.39788082 200.67316316 28.1875 206.4375 C27.59839844 207.22640625 27.00929688 208.0153125 26.40234375 208.828125 C25.81582031 209.62734375 25.22929688 210.4265625 24.625 211.25 C14.68017313 224.44823891 3.85323791 237.53841863 -11.0625 245.19140625 C-16.48450382 250.01808871 -16.95459895 258.79005347 -17.8046875 265.66796875 C-18.04490068 267.43433634 -18.28580654 269.20060985 -18.52734375 270.96679688 C-18.89302253 273.71086423 -19.25225957 276.45539172 -19.59912109 279.2019043 C-19.94123669 281.88085551 -20.30871251 284.55538267 -20.6796875 287.23046875 C-20.77571259 288.04621872 -20.87173767 288.86196869 -20.97067261 289.70243835 C-21.77343049 295.32817059 -23.32461074 298.23219286 -27.375 302.25 C-29.75903542 303.44201771 -31.26751117 303.39555687 -33.92895508 303.42700195 C-34.87366165 303.43983719 -35.81836823 303.45267242 -36.79170227 303.46589661 C-37.81563583 303.47328354 -38.8395694 303.48067047 -39.89453125 303.48828125 C-40.94525314 303.496353 -41.99597504 303.50442474 -43.07853699 303.51274109 C-45.30535224 303.52658815 -47.53218877 303.53730751 -49.7590332 303.54516602 C-53.16333276 303.56237781 -56.5666611 303.60625913 -59.97070312 303.65039062 C-62.13280535 303.66051745 -64.29491584 303.66903358 -66.45703125 303.67578125 C-67.98382256 303.70204338 -67.98382256 303.70204338 -69.54145813 303.72883606 C-73.87217451 303.71555761 -76.61391293 303.68063664 -80.43334961 301.51953125 C-82.44280881 299.17074051 -83.42122723 297.44183602 -84.359375 294.51171875 C-84.65457031 293.60873047 -84.94976563 292.70574219 -85.25390625 291.77539062 C-85.68509766 290.37063477 -85.68509766 290.37063477 -86.125 288.9375 C-86.42792969 288.01259766 -86.73085938 287.08769531 -87.04296875 286.13476562 C-88.62977626 281.17334748 -89.83181222 276.43172549 -90.375 271.25 C-91.04225098 271.39219971 -91.70950195 271.53439941 -92.39697266 271.6809082 C-102.79065938 273.60102366 -113.07534338 273.51929615 -123.61230469 273.45581055 C-126.73641184 273.4375793 -129.86022015 273.43530142 -132.984375 273.43554688 C-143.82160577 273.41586159 -154.57480827 273.18498372 -165.375 272.25 C-165.56610352 272.91531738 -165.75720703 273.58063477 -165.95410156 274.26611328 C-166.83372108 277.30561681 -167.72919421 280.34022937 -168.625 283.375 C-168.92535156 284.42171875 -169.22570312 285.4684375 -169.53515625 286.546875 C-173.35915147 299.40200788 -173.35915147 299.40200788 -178.22036743 302.38076782 C-180.59314579 303.33800542 -182.31347796 303.51534762 -184.86474609 303.54052734 C-185.74601166 303.55328705 -186.62727722 303.56604675 -187.5352478 303.57919312 C-188.4801004 303.58141876 -189.424953 303.58364441 -190.3984375 303.5859375 C-191.37736969 303.5925943 -192.35630188 303.5992511 -193.36489868 303.60610962 C-195.43432742 303.61622731 -197.50378874 303.62092691 -199.57324219 303.62060547 C-202.73166968 303.62497464 -205.88869503 303.66129301 -209.046875 303.69921875 C-211.05989107 303.70508795 -213.07291376 303.70905665 -215.0859375 303.7109375 C-216.02674164 303.72530853 -216.96754578 303.73967957 -217.93685913 303.75448608 C-223.5380084 303.71565497 -227.05667738 303.19424755 -231.375 299.25 C-232.54467773 297.09375 -232.54467773 297.09375 -233.12109375 294.75 C-233.3413623 293.86957031 -233.56163086 292.98914063 -233.78857422 292.08203125 C-234.80884486 287.15482913 -235.68066961 282.22445028 -236.4375 277.25 C-236.60886475 276.16364258 -236.78022949 275.07728516 -236.95678711 273.95800781 C-238.09190102 266.60277278 -239.03760659 259.24265546 -239.60375977 251.8203125 C-240.14244204 245.81143132 -241.88629738 242.42353202 -246.37890625 238.5234375 C-247.56148652 237.55286696 -248.74787644 236.58692466 -249.9375 235.625 C-270.00541348 218.85004398 -284.98631651 196.72776188 -291.375 171.25 C-291.56046387 170.54383545 -291.74592773 169.8376709 -291.93701172 169.11010742 C-293.61814654 161.96044501 -293.68006861 154.84573388 -293.63574219 147.5378418 C-293.62507089 145.4513609 -293.6356658 143.36575091 -293.6484375 141.27929688 C-293.65596593 132.78835796 -292.95086899 124.61125933 -291.375 116.25 C-299.8809592 112.7899488 -308.94060095 111.53761051 -317.875 114.375 C-322.44124681 116.82120365 -325.02974427 119.55948853 -327.375 124.25 C-327.85989581 129.47336585 -327.85989581 129.47336585 -326.25 134.25 C-323.37788188 135.78179633 -321.5822487 135.76315979 -318.375 135.25 C-317.570625 134.404375 -316.76625 133.55875 -315.9375 132.6875 C-313.375 130.25 -313.375 130.25 -309.75 130.25 C-306.41888 131.23699852 -305.38928268 131.57627954 -303.375 134.25 C-302.6012873 138.72539697 -302.81452583 142.9609094 -304.625 147.125 C-309.30414497 152.8068189 -312.64962701 154.8774627 -320.125 155.625 C-327.11563357 155.43715188 -334.51815462 152.24561239 -339.375 147.25 C-345.17010546 139.35374519 -347.41765962 132.06169439 -346.375 122.25 C-344.18162722 112.94898884 -338.29622959 105.5986455 -330.375 100.375 C-322.72623009 95.76525028 -315.83460687 94.72644974 -307.0625 94.8125 C-305.53870728 94.81733398 -305.53870728 94.81733398 -303.98413086 94.82226562 C-296.77181362 94.95669622 -290.79183628 95.73564468 -284.375 99.25 C-283.99988281 97.9815625 -283.99988281 97.9815625 -283.6171875 96.6875 C-279.32966955 84.82267046 -271.10095503 74.99501388 -262.73828125 65.76904297 C-261.53903433 64.43277608 -260.37580883 63.06436555 -259.21875 61.69140625 C-254.19455807 55.75091702 -248.49791301 51.02474868 -242.375 46.25 C-241.32842181 45.40358524 -240.28286979 44.55590027 -239.23828125 43.70703125 C-232.29914296 38.13195212 -224.84046609 32.25041836 -216.375 29.25 C-212.63745054 30.21925257 -210.50417505 33.04672368 -207.9375 35.8125 C-198.47397942 45.42843453 -187.47018129 51.61041772 -175.375 57.25 C-178.45498766 59.30332511 -179.40819596 59.53187384 -182.9375 59.7421875 C-184.25621094 59.84080078 -184.25621094 59.84080078 -185.6015625 59.94140625 C-187.45002229 60.06376908 -189.29901313 60.1783585 -191.1484375 60.28515625 C-192.46714844 60.38763672 -192.46714844 60.38763672 -193.8125 60.4921875 C-194.61558594 60.5422998 -195.41867187 60.59241211 -196.24609375 60.64404297 C-198.52578673 61.10373347 -198.52578673 61.10373347 -200.16796875 63.07080078 C-201.9995703 66.37761216 -201.29916775 68.68535298 -200.375 72.25 C-197.18649317 74.37567122 -196.40996633 74.49965247 -192.75796509 74.49723816 C-191.81026749 74.50143265 -190.86256989 74.50562714 -189.88615417 74.50994873 C-188.32916557 74.50151947 -188.32916557 74.50151947 -186.74072266 74.49291992 C-185.64616257 74.49481827 -184.55160248 74.49671661 -183.4238739 74.49867249 C-179.79553121 74.50238548 -176.1673875 74.49166702 -172.5390625 74.48046875 C-170.02184065 74.47927695 -167.50461836 74.47882379 -164.98739624 74.4790802 C-159.70641768 74.47751434 -154.42549056 74.46946046 -149.14453125 74.45581055 C-143.04440157 74.44010124 -136.94433487 74.4348119 -130.84418643 74.4355461 C-124.97249436 74.43615731 -119.10082342 74.43093403 -113.22913742 74.42275429 C-110.73245746 74.41957035 -108.23577566 74.41760085 -105.73909378 74.41686058 C-102.24871929 74.41469315 -98.75842391 74.40593951 -95.26806641 74.39526367 C-93.7171505 74.39594345 -93.7171505 74.39594345 -92.13490295 74.39663696 C-91.1815657 74.39237198 -90.22822845 74.38810699 -89.2460022 74.38371277 C-88.42120676 74.38203692 -87.59641132 74.38036108 -86.74662209 74.37863445 C-84.21146495 74.24113002 -81.84980397 73.80417234 -79.375 73.25 C-79.12545995 71.81589632 -78.90107358 70.37739928 -78.6875 68.9375 C-78.55988281 68.13699219 -78.43226563 67.33648437 -78.30078125 66.51171875 C-78.16257601 64.22419955 -78.16257601 64.22419955 -79.546875 62.65429688 C-81.96485503 60.79689555 -83.67174815 60.73697389 -86.69921875 60.51953125 C-87.72724609 60.43896484 -88.75527344 60.35839844 -89.81445312 60.27539062 C-90.88630859 60.20513672 -91.95816406 60.13488281 -93.0625 60.0625 C-94.68768555 59.9397168 -94.68768555 59.9397168 -96.34570312 59.81445312 C-99.02148542 59.61406414 -101.69754851 59.42642736 -104.375 59.25 C-101.89820967 56.66034441 -99.58272976 55.18967687 -96.375 53.5625 C-81.21173936 45.44217489 -69.14407041 34.288516 -59.375 20.25 C-56.98010504 20.70398878 -54.6579613 21.15712786 -52.33984375 21.91796875 C-49.74694029 22.58243149 -48.03263731 22.7123726 -45.375 22.25 C-42.13383959 20.07890892 -39.30112406 17.58048149 -36.42578125 14.9609375 C-25.91945698 5.39273751 -14.06326578 0.08575162 0 0 Z " fill="#022C4D" transform="translate(645.375,335.75)"/>
<path d="M0 0 C17.81670718 14.55646227 30.39848235 33.73086986 33 57 C34.25409151 77.71533128 31.41736224 94.98897096 21 113 C20.51660156 113.84949219 20.03320312 114.69898438 19.53515625 115.57421875 C7.84405757 134.44941286 -11.05265836 147.14141708 -32.3125 152.8125 C-54.18203878 157.73025343 -77.59800129 154.63673599 -97 143.1875 C-102.85863126 139.32109851 -107.9701887 134.87793423 -113 130 C-113.61230469 129.46117187 -114.22460938 128.92234375 -114.85546875 128.3671875 C-125.16397428 118.97866301 -130.98640796 106.09099936 -135 93 C-135.3403125 91.89398438 -135.680625 90.78796875 -136.03125 89.6484375 C-141.66875429 67.77700883 -137.93618104 44.67229939 -127.37109375 24.9609375 C-123.31812133 18.28434721 -118.38107853 12.63271169 -113 7 C-112.44828125 6.37351563 -111.8965625 5.74703125 -111.328125 5.1015625 C-82.91381846 -25.98537683 -31.50942722 -24.19623125 0 0 Z " fill="#D43683" transform="translate(558,231)"/>
<path d="M0 0 C17.81670718 14.55646227 30.39848235 33.73086986 33 57 C34.25409151 77.71533128 31.41736224 94.98897096 21 113 C20.51660156 113.84949219 20.03320312 114.69898438 19.53515625 115.57421875 C7.84405757 134.44941286 -11.05265836 147.14141708 -32.3125 152.8125 C-54.18203878 157.73025343 -77.59800129 154.63673599 -97 143.1875 C-102.85863126 139.32109851 -107.9701887 134.87793423 -113 130 C-113.61230469 129.46117187 -114.22460938 128.92234375 -114.85546875 128.3671875 C-125.16397428 118.97866301 -130.98640796 106.09099936 -135 93 C-135.3403125 91.89398438 -135.680625 90.78796875 -136.03125 89.6484375 C-141.66875429 67.77700883 -137.93618104 44.67229939 -127.37109375 24.9609375 C-123.31812133 18.28434721 -118.38107853 12.63271169 -113 7 C-112.44828125 6.37351563 -111.8965625 5.74703125 -111.328125 5.1015625 C-82.91381846 -25.98537683 -31.50942722 -24.19623125 0 0 Z M-107.125 24.54296875 C-120.45384322 42.00930705 -123.32555272 60.91456648 -120.71435547 82.34423828 C-117.72335453 100.34555405 -106.74265546 115.48567965 -92.5625 126.4375 C-87.03308828 130.22864715 -81.30658761 132.78008116 -75 135 C-74.19820313 135.3196875 -73.39640625 135.639375 -72.5703125 135.96875 C-56.21732513 141.61131433 -37.04922537 138.65328355 -21.875 131.3125 C-4.44230747 122.40072914 6.71425248 108.71564621 13.3203125 90.32421875 C18.9561427 71.03233847 17.1836793 52.01731301 8.25 34.125 C4.89057723 28.40026936 0.6749964 23.68258568 -4 19 C-4.7734375 18.21496094 -5.546875 17.42992187 -6.34375 16.62109375 C-20.37760141 3.156798 -37.19588302 -1.67902119 -56.19873047 -1.54321289 C-76.14887538 -0.84048592 -94.34363103 9.41663088 -107.125 24.54296875 Z " fill="#04294A" transform="translate(558,231)"/>
<path d="M0 0 C9.24277805 6.44885845 13.54752645 15.3453792 16.265625 26.0546875 C18.35283571 39.6215571 17.25780999 54.87293354 9.9296875 66.74609375 C3.86447927 74.81783703 -3.3786458 79.89498263 -13.1328125 82.49609375 C-22.98308585 83.26866421 -31.15062343 82.83810483 -40.3203125 78.74609375 C-40.9803125 78.08609375 -41.6403125 77.42609375 -42.3203125 76.74609375 C-42.34536865 77.83140381 -42.3704248 78.91671387 -42.39624023 80.03491211 C-42.49015005 84.04740975 -42.59041017 88.05972757 -42.69262695 92.07202148 C-42.73603823 93.81123663 -42.77770862 95.5504961 -42.81762695 97.28979492 C-42.87518018 99.78447863 -42.9389167 102.27893785 -43.00390625 104.7734375 C-43.02897499 105.94687965 -43.02897499 105.94687965 -43.05455017 107.14402771 C-43.20644079 112.63222204 -43.20644079 112.63222204 -44.3203125 113.74609375 C-47.16366298 113.8459635 -49.97728413 113.88487256 -52.8203125 113.87109375 C-53.61824219 113.87496094 -54.41617188 113.87882813 -55.23828125 113.8828125 C-61.19370483 113.87270142 -61.19370483 113.87270142 -62.3203125 112.74609375 C-62.41606559 111.24058201 -62.44219437 109.73058345 -62.44056702 108.22203064 C-62.44194168 107.24461411 -62.44331635 106.26719757 -62.44473267 105.26016235 C-62.44113739 104.17907196 -62.43754211 103.09798157 -62.43383789 101.98413086 C-62.43398392 100.85257065 -62.43412994 99.72101044 -62.4342804 98.55516052 C-62.43358069 94.79456704 -62.42578561 91.03402238 -62.41796875 87.2734375 C-62.41610477 84.67411832 -62.41468078 82.07479878 -62.41368103 79.47547913 C-62.41024591 73.32020798 -62.40235506 67.16495715 -62.39233154 61.00969368 C-62.38116944 54.00376029 -62.37565971 46.99782608 -62.37063611 39.99188602 C-62.36017242 25.57661216 -62.34237308 11.16135421 -62.3203125 -3.25390625 C-56.3803125 -3.25390625 -50.4403125 -3.25390625 -44.3203125 -3.25390625 C-44.3203125 -0.61390625 -44.3203125 2.02609375 -44.3203125 4.74609375 C-43.77503906 4.34777344 -43.22976563 3.94945312 -42.66796875 3.5390625 C-29.89766931 -5.43289147 -14.28908224 -7.72187778 0 0 Z " fill="#042A4B" transform="translate(771.3203125,704.25390625)"/>
<path d="M0 0 C0.79792969 0.00386719 1.59585938 0.00773438 2.41796875 0.01171875 C3.61486328 0.00591797 3.61486328 0.00591797 4.8359375 0 C10.79136108 0.01011108 10.79136108 0.01011108 11.91796875 1.13671875 C12.03433222 3.6646713 12.08596603 6.16567565 12.0949707 8.69482422 C12.1015419 9.48684738 12.1081131 10.27887054 12.11488342 11.09489441 C12.1346817 13.73123259 12.14629961 16.36751335 12.15625 19.00390625 C12.16032553 19.9049622 12.16440105 20.80601814 12.16860008 21.73437881 C12.18949856 26.51269555 12.2037782 31.29098333 12.21313477 36.06933594 C12.22414682 40.98626982 12.25847499 45.90274455 12.29830647 50.81951714 C12.32458218 54.61331975 12.33283677 58.40701544 12.33641624 62.20090103 C12.34126186 64.01162913 12.3528175 65.82235312 12.37145424 67.63299179 C12.50482336 81.46125565 11.22608477 93.13035524 1.91796875 104.13671875 C-9.43557252 114.89017856 -23.68235731 116.72285923 -38.66796875 116.38671875 C-50.29263893 115.88972558 -62.42100785 112.01570507 -70.484375 103.28515625 C-77.24915329 94.18826613 -80.42114407 84.09473602 -80.30908203 72.88476562 C-80.30937408 72.10331177 -80.30966614 71.32185791 -80.30996704 70.51672363 C-80.3085863 67.96285453 -80.29308505 65.40928616 -80.27734375 62.85546875 C-80.27360914 61.0732845 -80.27076429 59.29109818 -80.26876831 57.50891113 C-80.2611671 52.84002926 -80.2415491 48.1712737 -80.21936035 43.50244141 C-80.19882593 38.72950956 -80.18975041 33.95655712 -80.1796875 29.18359375 C-80.15829962 19.83458021 -80.12420649 10.48566002 -80.08203125 1.13671875 C-76.93621702 1.10783361 -73.79043656 1.08995952 -70.64453125 1.07421875 C-69.74669922 1.06583984 -68.84886719 1.05746094 -67.92382812 1.04882812 C-67.06982422 1.04560547 -66.21582031 1.04238281 -65.3359375 1.0390625 C-64.14979858 1.03120728 -64.14979858 1.03120728 -62.93969727 1.02319336 C-61.08203125 1.13671875 -61.08203125 1.13671875 -60.08203125 2.13671875 C-59.97358249 4.43994215 -59.93570835 6.74649906 -59.92431641 9.05224609 C-59.91669533 10.13786835 -59.91669533 10.13786835 -59.90892029 11.24542236 C-59.89818998 12.82397614 -59.88958032 14.40254538 -59.88280106 15.98112106 C-59.87102226 18.48787114 -59.8515663 20.99444812 -59.8296814 23.50112915 C-59.76807286 30.63106415 -59.71425081 37.7609871 -59.68066406 44.89111328 C-59.65957913 49.2496281 -59.62415299 53.60783663 -59.57990646 57.96617508 C-59.56583938 59.62053413 -59.55704525 61.27494748 -59.55385208 62.92936325 C-59.76830234 78.4696096 -59.76830234 78.4696096 -54.01953125 92.57421875 C-46.97021914 98.72361867 -39.60105046 99.75622481 -30.42578125 99.45703125 C-24.3535558 98.8753461 -19.93559746 97.66792562 -15.20703125 93.76171875 C-7.00093497 83.62477629 -7.76739712 72.0698193 -7.703125 59.66796875 C-7.68692962 57.97927915 -7.66974751 56.29059875 -7.65162659 54.60192871 C-7.60619298 50.18343342 -7.5712432 45.76492557 -7.53942871 41.34631348 C-7.48729193 34.2464352 -7.42255297 27.14669064 -7.35121346 20.04698181 C-7.32834526 17.56685618 -7.31210682 15.08674795 -7.29649353 12.60656738 C-7.28309631 11.09903766 -7.26948234 9.59150985 -7.25561523 8.08398438 C-7.25300186 7.39106293 -7.25038849 6.69814148 -7.24769592 5.98422241 C-7.17813585 -0.34655664 -6.23127988 0.01057942 0 0 Z " fill="#022A4C" transform="translate(676.08203125,670.86328125)"/>
<path d="M0 0 C1.04027344 -0.00644531 2.08054687 -0.01289062 3.15234375 -0.01953125 C12.55206649 0.13436849 21.84181645 1.6464663 30.1875 6.1875 C31.00734375 6.62449219 31.8271875 7.06148437 32.671875 7.51171875 C33.54585937 8.00091797 33.54585937 8.00091797 34.4375 8.5 C32.51039294 20.02164009 32.51039294 20.02164009 30.4375 25.5 C29.220625 25.0875 28.00375 24.675 26.75 24.25 C25.92113281 23.98058594 25.09226562 23.71117187 24.23828125 23.43359375 C22.32697584 22.79649195 20.42844162 22.12007114 18.54296875 21.41015625 C12.11817243 19.1392534 6.2711519 18.11159818 -0.5 18.0625 C-1.20962891 18.05259033 -1.91925781 18.04268066 -2.65039062 18.0324707 C-8.54902064 18.12943257 -12.56468268 19.71247924 -16.9375 23.625 C-19.15541905 27.54901063 -19.40203797 31.08297138 -18.5625 35.5 C-15.48888223 41.98766789 -9.98553391 44.01959457 -3.5625 46.5 C0.44042632 47.86863183 4.47027769 49.15029173 8.5 50.4375 C21.53311557 54.63791085 32.01397661 58.93445098 38.56640625 71.69921875 C41.2518196 80.333485 40.74427319 92.36897388 36.75390625 100.4609375 C31.01144451 109.35578921 22.56837744 113.55446968 12.5625 116.3125 C-5.30589071 119.9999627 -24.39790659 118.00237449 -40.5625 109.5 C-39.40045007 102.95150687 -37.82866615 96.75461856 -35.5625 90.5 C-32.93491523 91.53758375 -30.32556297 92.60196463 -27.73046875 93.71875 C-26.74691406 94.1415625 -25.76335937 94.564375 -24.75 95 C-23.77417969 95.4228125 -22.79835938 95.845625 -21.79296875 96.28125 C-15.1923386 98.77145146 -9.11338041 99.8675663 -2.0625 99.8125 C-1.31782471 99.80758545 -0.57314941 99.8026709 0.1940918 99.79760742 C5.55993932 99.68273858 9.69378212 99.19740821 14.4375 96.5 C18.72780588 91.98967843 19.82591292 88.89382024 19.69921875 82.8125 C19.26895675 79.01078202 18.07284245 77.26083495 15.4375 74.5 C8.69655402 70.40411279 1.48783758 68.10122577 -6.0625 66 C-17.84152118 62.72195017 -30.00603209 59.05688116 -36.375 47.875 C-40.70017894 39.6725571 -41.10818235 29.41129249 -38.76171875 20.4375 C-34.9687835 12.09564928 -28.22252037 6.41549365 -20.0625 2.5 C-13.44293209 0.18666812 -6.97470831 0.04112446 0 0 Z " fill="#04294A" transform="translate(284.5625,669.5)"/>
<path d="M0 0 C10.30335793 -0.33677983 21.76267545 0.71788169 30.140625 7.4453125 C38.7937901 17.52184419 38.78772301 28.82606709 38.734375 41.33984375 C38.73296005 42.59511368 38.7315451 43.85038361 38.73008728 45.14369202 C38.72545451 48.45955351 38.71649014 51.77534452 38.7053833 55.09118652 C38.69510167 58.48331091 38.69057528 61.87544261 38.68554688 65.26757812 C38.67454446 71.90757386 38.65729358 78.5475273 38.63671875 85.1875 C32.36671875 85.1875 26.09671875 85.1875 19.63671875 85.1875 C19.30671875 83.2075 18.97671875 81.2275 18.63671875 79.1875 C18.16363281 79.51363281 17.69054687 79.83976563 17.203125 80.17578125 C7.31977735 86.70688233 -1.47086677 88.30439698 -13.36328125 87.1875 C-20.55226999 85.58358219 -25.97828072 82.11943128 -30.36328125 76.1875 C-34.05340506 70.0856167 -34.17772432 63.12430826 -33.36328125 56.1875 C-31.56275954 49.51764285 -26.9824477 44.97851298 -21.36328125 41.1875 C-14.28963003 37.58517762 -7.46670038 36.04715904 0.47265625 36.08984375 C1.53613281 36.09306641 2.59960938 36.09628906 3.6953125 36.09960938 C5.33693359 36.11217773 5.33693359 36.11217773 7.01171875 36.125 C8.12933594 36.12951172 9.24695313 36.13402344 10.3984375 36.13867188 C13.14458679 36.15040756 15.89062461 36.16682637 18.63671875 36.1875 C18.50211233 34.41750075 18.36006154 32.64806651 18.21484375 30.87890625 C18.1365332 29.89349854 18.05822266 28.90809082 17.97753906 27.89282227 C17.5647059 24.61588507 16.86062813 22.64968538 14.63671875 20.1875 C10.28747576 17.89842474 5.95394734 17.76572434 1.13671875 17.75 C-0.05062866 17.74528687 -0.05062866 17.74528687 -1.26196289 17.74047852 C-8.78200106 17.89159309 -14.56909908 19.95469881 -21.36328125 23.1875 C-22.35328125 23.5175 -23.34328125 23.8475 -24.36328125 24.1875 C-24.36328125 18.2475 -24.36328125 12.3075 -24.36328125 6.1875 C-15.95093147 2.7699829 -8.99331792 0.50136964 0 0 Z " fill="#04294A" transform="translate(369.36328125,699.8125)"/>
<path d="M0 0 C6.17273292 5.39044597 7.60950026 11.8454696 9.97265625 19.72265625 C9.97265625 26.98265625 9.97265625 34.24265625 9.97265625 41.72265625 C-8.50734375 41.72265625 -26.98734375 41.72265625 -46.02734375 41.72265625 C-43.78086171 51.80398607 -43.78086171 51.80398607 -38.02734375 58.72265625 C-32.66555033 61.51400189 -28.3448764 62.23860298 -22.33984375 62.16015625 C-21.55327393 62.1554834 -20.7667041 62.15081055 -19.95629883 62.14599609 C-13.13397767 61.97454947 -7.29570041 60.42742747 -1.02734375 57.72265625 C0.63868648 57.05440069 2.30516501 56.38725778 3.97265625 55.72265625 C5.96882179 57.71882179 5.38249052 61.53967588 5.53515625 64.28515625 C5.57833984 64.99607422 5.62152344 65.70699219 5.66601562 66.43945312 C5.77237402 68.20027537 5.87304471 69.96143945 5.97265625 71.72265625 C-6.84517538 79.04299802 -20.96156645 81.87264811 -35.5859375 79.03125 C-46.0162918 76.14933708 -53.83720591 70.64650979 -60.02734375 61.72265625 C-66.21687921 49.26856067 -67.61997409 33.07527624 -64.15625 19.56640625 C-60.12071205 8.4521378 -53.73542189 0.77699873 -43.02734375 -4.27734375 C-29.30573618 -10.42760589 -12.14423471 -8.71729017 0 0 Z " fill="#04294B" transform="translate(569.02734375,707.27734375)"/>
<path d="M0 0 C4.29 0 8.58 0 13 0 C13 3.96 13 7.92 13 12 C14.299375 12.04125 15.59875 12.0825 16.9375 12.125 C24.04632327 12.9310398 29.58217309 16.84002146 34 22.375 C36.44388283 26.12900559 36.76728728 29.57845839 37 34 C35.43883181 34.33951619 33.87598662 34.67132544 32.3125 35 C31.44238281 35.185625 30.57226562 35.37125 29.67578125 35.5625 C27.06287036 35.98972047 24.64186962 36.07616201 22 36 C21.62875 35.071875 21.2575 34.14375 20.875 33.1875 C18.98441119 29.31196671 18.98441119 29.31196671 13 27 C13 34.26 13 41.52 13 49 C16.3 49.99 19.6 50.98 23 52 C30.00002415 54.88236288 34.8140453 58.43411509 38.14453125 65.390625 C40.21480955 71.70544647 39.77706962 79.07460476 37.09765625 85.15625 C33.11335206 91.84874672 27.31846569 95.65911994 20 98 C17.63632884 98.51176733 15.41670504 98.79432298 13 99 C13 101.97 13 104.94 13 108 C8.71 108 4.42 108 0 108 C0 105.03 0 102.06 0 99 C-1.44375 98.79375 -2.8875 98.5875 -4.375 98.375 C-11.89443745 96.8391149 -18.63594361 93.58675473 -23.0625 87.125 C-25.25380276 83.12818722 -25.75787684 79.5196323 -26 75 C-15.17112299 70.95721925 -15.17112299 70.95721925 -11 72 C-9.5711481 73.90513587 -8.50054746 75.81136153 -7.46875 77.95703125 C-5.7224514 80.72024184 -5.7224514 80.72024184 0 83 C0 75.74 0 68.48 0 61 C-2.97 60.34 -5.94 59.68 -9 59 C-15.83456723 56.24219217 -20.20143172 52.45990917 -24.10546875 46.23828125 C-26.33428815 40.66136632 -25.83144694 33.29947617 -24.3828125 27.55078125 C-21.49966056 21.05731072 -15.72945638 16.07769659 -9.375 13.0625 C-6 12 -6 12 0 12 C0 8.04 0 4.08 0 0 Z " fill="#03294A" transform="translate(500,245)"/>
<path d="M0 0 C6.6 0 13.2 0 20 0 C23.01405104 7.31652564 25.63365098 14.68547988 28.07421875 22.2109375 C28.44352005 23.34149567 28.81282135 24.47205383 29.1933136 25.63687134 C29.96710732 28.00789342 30.73931753 30.37943282 31.51000977 32.75146484 C32.69116972 36.38629296 33.8774027 40.01943556 35.06445312 43.65234375 C35.81800364 45.9634454 36.57126898 48.27464006 37.32421875 50.5859375 C37.67836349 51.67135834 38.03250824 52.75677917 38.39738464 53.87509155 C38.72475113 54.88359161 39.05211761 55.89209167 39.3894043 56.93115234 C39.82098091 58.25824722 39.82098091 58.25824722 40.26127625 59.6121521 C40.91646185 61.72997158 41.48839957 63.84361916 42 66 C42.31114746 65.0613208 42.62229492 64.1226416 42.94287109 63.15551758 C48.24962455 47.15431738 53.56103493 31.15434198 59.03619385 15.20980835 C59.68070355 13.33229861 60.32254396 11.45387326 60.96435547 9.57543945 C61.35123535 8.45355225 61.73811523 7.33166504 62.13671875 6.17578125 C62.47405029 5.19520752 62.81138184 4.21463379 63.15893555 3.2043457 C64 1 64 1 65 0 C66.34267413 -0.08631874 67.68974322 -0.10706473 69.03515625 -0.09765625 C69.84404297 -0.09443359 70.65292969 -0.09121094 71.48632812 -0.08789062 C72.33646484 -0.07951172 73.18660156 -0.07113281 74.0625 -0.0625 C74.91650391 -0.05798828 75.77050781 -0.05347656 76.65039062 -0.04882812 C78.76695663 -0.03700373 80.88348685 -0.01906769 83 0 C81.47139824 8.43047034 78.41857677 16.17863159 75.3125 24.125 C74.74254298 25.59676484 74.17322073 27.06877564 73.60449219 28.54101562 C72.38913758 31.68505507 71.17043795 34.8277709 69.94970703 37.96972656 C67.89910191 43.25311305 65.86824418 48.54399362 63.83984375 53.8359375 C63.15130734 55.63135591 62.46274959 57.42676614 61.77416992 59.22216797 C61.43856049 60.09726013 61.10295105 60.97235229 60.75717163 61.8739624 C60.42480499 62.74055481 60.09243835 63.60714722 59.75 64.5 C59.25253769 65.79722992 59.25253769 65.79722992 58.74502563 67.1206665 C57.80504508 69.57044025 56.86366903 72.01967296 55.921875 74.46875 C55.64016953 75.2036264 55.35846405 75.93850281 55.06822205 76.69564819 C53.11449753 81.77100493 53.11449753 81.77100493 52 84 C45.07 84 38.14 84 31 84 C30.1028125 81.59976563 29.205625 79.19953125 28.28125 76.7265625 C27.02141635 73.35915667 25.76070481 69.99207977 24.5 66.625 C24.17063446 65.744953 23.84126892 64.86490601 23.50192261 63.95819092 C19.51636007 53.3129564 15.50521306 42.67813408 11.44140625 32.0625 C11.07288544 31.09911713 10.70436462 30.13573425 10.32467651 29.14315796 C8.53082942 24.45519186 6.73301508 19.7687999 4.9296875 15.08447266 C4.27722881 13.38187998 3.62487922 11.67924549 2.97265625 9.9765625 C2.67025528 9.19506836 2.36785431 8.41357422 2.05628967 7.60839844 C0 2.22681415 0 2.22681415 0 0 Z " fill="#03294B" transform="translate(416,701)"/>
<path d="M0 0 C5.817072 4.726371 9.13165062 9.86025951 10 17.4375 C10.78045277 28.06366459 10.42079314 37.66590896 3.75 46.375 C-2.09755005 50.76066254 -6.95626376 53.15003799 -14.40625 52.828125 C-20.82782172 51.86102083 -26.91802412 49.63946309 -31 44.4375 C-31.4345266 41.63306719 -31.63176584 39.22505397 -31.63671875 36.41796875 C-31.64766068 35.64117264 -31.6586026 34.86437653 -31.6698761 34.06404114 C-31.68571844 32.42256287 -31.69094416 30.78095239 -31.6862793 29.1394043 C-31.6874917 26.64210107 -31.74719393 24.15069854 -31.81054688 21.65429688 C-31.93772864 10.08403038 -31.93772864 10.08403038 -29.50292969 5.80883789 C-27.74998269 4.02143323 -26.14384579 2.71635615 -24 1.4375 C-22.96875 0.798125 -21.9375 0.15875 -20.875 -0.5 C-14.60952935 -2.76804367 -6.00960271 -3.05751717 0 0 Z " fill="#D53784" transform="translate(759,718.5625)"/>
<path d="M0 0 C139.59 0 279.18 0 423 0 C423 0.33 423 0.66 423 1 C415.62778662 1.77314349 408.33952464 2.16093923 400.92895508 2.20532227 C399.88371674 2.21522186 398.83847839 2.22512146 397.76156616 2.23532104 C394.34757662 2.26660838 390.93357322 2.29156223 387.51953125 2.31640625 C385.13628299 2.33700416 382.75303815 2.35800133 380.36979675 2.37937927 C374.12774442 2.4343071 367.88566073 2.48384434 361.64355469 2.53222656 C355.26169071 2.58265679 348.87987169 2.63823 342.49804688 2.69335938 C329.99873642 2.80058217 317.49938675 2.90210531 305 3 C305 3.33 305 3.66 305 4 C303.35 4 301.7 4 300 4 C300 3.67 300 3.34 300 3 C299.38018324 2.99826375 298.76036649 2.9965275 298.1217674 2.99473864 C261.39609541 2.89173711 224.67044175 2.78363038 187.94480451 2.66888306 C183.53628255 2.65511329 179.12776046 2.64138622 174.71923828 2.62768555 C173.40273796 2.62359309 173.40273796 2.62359309 172.05964167 2.61941796 C157.84381063 2.57532867 143.62797168 2.53469993 129.41212682 2.49534739 C114.82814572 2.45489884 100.24417927 2.41073766 85.66021979 2.36312145 C76.65929893 2.33385098 67.65837915 2.30748523 58.65743919 2.28482103 C52.48731006 2.2690075 46.31719886 2.24959163 40.14708965 2.22733159 C36.58592871 2.21459064 33.02478149 2.20344894 29.46360397 2.19658089 C25.60334552 2.18909454 21.74313788 2.1740282 17.88290405 2.15821838 C16.7564423 2.15724028 15.62998055 2.15626217 14.4693836 2.15525442 C9.53902299 2.12920298 4.84349255 2.05162416 0 1 C0 0.67 0 0.34 0 0 Z " fill="#C93A7F" transform="translate(300,860)"/>
<path d="M0 0 C1.51980469 0.02030273 1.51980469 0.02030273 3.0703125 0.04101562 C5.54744404 0.07606937 8.02342927 0.12520236 10.5 0.1875 C10.60853983 2.41558159 10.68583307 4.64519932 10.75 6.875 C10.79640625 8.11636719 10.8428125 9.35773437 10.890625 10.63671875 C10.43098539 14.81484277 9.49172949 16.29394471 6.5 19.1875 C-0.41776566 23.63372507 -8.50082277 24.27249478 -16.5 23.1875 C-19.73660325 21.9142774 -21.9058941 20.3757118 -23.5 17.1875 C-24.02601436 12.79829821 -24.06627431 9.2728591 -22 5.3125 C-15.41237507 -0.28698119 -8.22609277 -0.21051025 0 0 Z " fill="#D53683" transform="translate(377.5,748.8125)"/>
<path d="M0 0 C3.4331459 2.00318208 6.21130844 4.42261689 8 8 C8.58178451 12.85311379 9.11119633 17.82608234 6.8359375 22.27734375 C3.197275 26.69038826 -0.18765077 28.63317184 -5.875 29.375 C-9.86971658 28.89563401 -12.9173285 27.60496938 -16 25 C-19.40485163 20.36208294 -19.61687599 16.57494022 -19.4921875 10.95703125 C-18.74412524 6.46272067 -16.60425671 3.70976965 -13 1 C-8.62426098 -0.45857967 -4.56269847 -0.75239657 0 0 Z " fill="#D53783" transform="translate(634,429)"/>
<path d="M0 0 C4.01684726 2.93915653 6.95784056 6.06102168 8.5625 10.875 C8.5625 13.185 8.5625 15.495 8.5625 17.875 C-4.3075 17.875 -17.1775 17.875 -30.4375 17.875 C-29.18981948 7.89355587 -29.18981948 7.89355587 -24.4375 2.875 C-17.48654606 -2.21106386 -8.05864209 -2.63737377 0 0 Z " fill="#D23682" transform="translate(553.4375,717.125)"/>
<path d="M0 0 C3.14581423 -0.02888514 6.29159469 -0.04675923 9.4375 -0.0625 C10.33533203 -0.07087891 11.23316406 -0.07925781 12.15820312 -0.08789062 C13.01220703 -0.09111328 13.86621094 -0.09433594 14.74609375 -0.09765625 C15.93223267 -0.10551147 15.93223267 -0.10551147 17.14233398 -0.11352539 C19 0 19 0 20 1 C20.11958418 3.32471257 20.1754058 5.62109003 20.18945312 7.94726562 C20.19774643 8.67422638 20.20603973 9.40118713 20.21458435 10.150177 C20.23202831 11.73527307 20.2471831 13.32039556 20.26036072 14.90553284 C20.28136588 17.42012266 20.30839771 19.93458297 20.33703613 22.44909668 C20.3968459 27.79934762 20.44883326 33.14966042 20.5 38.5 C20.55937571 44.67312722 20.62199076 50.84619303 20.69187927 57.01921082 C20.71826219 59.48564692 20.73920307 61.95208961 20.7598877 64.4185791 C20.83311761 71.66706442 20.98216187 78.80920024 22 86 C16.58431964 80.58431964 17.78588822 69.39099591 17.76771736 62.11776352 C17.77354159 59.91697101 17.78890672 57.71636668 17.8046875 55.515625 C17.80842738 53.96336043 17.81126973 52.41109347 17.81326294 50.85882568 C17.82082274 46.81470988 17.8404034 42.77074255 17.8626709 38.72668457 C17.88329627 34.58343513 17.89229999 30.44016121 17.90234375 26.296875 C17.92365824 18.19784164 17.95877587 10.09895651 18 2 C12.39 2 6.78 2 1 2 C1.33 29.06 1.66 56.12 2 84 C-0.12954513 79.74090973 -0.27214282 76.80305236 -0.22705078 72.20214844 C-0.22734283 71.42127869 -0.22763489 70.64040894 -0.22793579 69.83587646 C-0.2265448 67.26026212 -0.21099452 64.68493868 -0.1953125 62.109375 C-0.19158155 60.32147378 -0.18873496 58.5335705 -0.18673706 56.7456665 C-0.17910707 52.04384703 -0.159464 47.34215144 -0.1373291 42.64038086 C-0.11685704 37.84100012 -0.10773243 33.04159933 -0.09765625 28.2421875 C-0.07621753 18.82807062 -0.0420892 9.41404562 0 0 Z " fill="#051F38" transform="translate(596,672)"/>
<path d="M0 0 C5.94 0 11.88 0 18 0 C17.34 2.97 16.68 5.94 16 9 C15.67 9 15.34 9 15 9 C15.33 6.69 15.66 4.38 16 2 C10.72 2 5.44 2 0 2 C-0.25910156 3.26972656 -0.51820313 4.53945313 -0.78515625 5.84765625 C-1.97055734 11.17831215 -3.66020886 16.27920492 -5.4375 21.4375 C-7.50838622 27.49873902 -9.50654224 33.55794398 -11.27978516 39.71386719 C-12.04434776 42.14077031 -12.95970442 44.46412349 -13.9375 46.8125 C-16.03714946 51.87257475 -17.56793095 57.0479564 -19.0703125 62.3125 C-20 65 -20 65 -22 67 C-20.76250912 59.98623982 -18.9752788 53.34510408 -16.69921875 46.6015625 C-16.22184013 45.1672438 -16.22184013 45.1672438 -15.7348175 43.70394897 C-15.06447365 41.69456673 -14.39118883 39.68616341 -13.71508789 37.67871094 C-12.69340898 34.64255987 -11.68293507 31.60284951 -10.67382812 28.5625 C-7.44123282 18.87692606 -4.11761219 9.3502451 0 0 Z " fill="#16203B" transform="translate(481,701)"/>
<path d="M0 0 C0 6.27 0 12.54 0 19 C-7.5 16.5 -7.5 16.5 -9 14 C-9.39916548 10.90646756 -9.63472337 8.96011901 -9 6 C-4.14893617 0 -4.14893617 0 0 0 Z " fill="#D13781" transform="translate(500,271)"/>
<path d="M0 0 C6.52671756 2.61068702 6.52671756 2.61068702 9 6 C9.5625 9.4375 9.5625 9.4375 9 13 C6.75 15.9375 6.75 15.9375 4 18 C2.68 18 1.36 18 0 18 C0 12.06 0 6.12 0 0 Z " fill="#D43884" transform="translate(513,310)"/>
<path d="M0 0 C4.79497786 1.59832595 5.56538664 4.55683062 8 9 C11 19 11 19 11 40 C-7.48 40 -25.96 40 -45 40 C-45 39.67 -45 39.34 -45 39 C-26.85 39 -8.7 39 10 39 C9.59057759 20.26928263 9.59057759 20.26928263 2 4 C1.30570621 2.6808418 0.62469505 1.35350594 0 0 Z " fill="#001D32" transform="translate(568,708)"/>
<path d="M0 0 C0.56460938 0.37253906 1.12921875 0.74507813 1.7109375 1.12890625 C1.1746875 1.23203125 0.6384375 1.33515625 0.0859375 1.44140625 C-16.30375609 6.18579124 -30.72627547 20.18069298 -42.2890625 32.12890625 C-43.2790625 31.79890625 -44.2690625 31.46890625 -45.2890625 31.12890625 C-9.80233673 -3.73024077 -9.80233673 -3.73024077 0 0 Z " fill="#0A2138" transform="translate(431.2890625,365.87109375)"/>
<path d="M0 0 C5 1 5 1 7.3125 3.375 C9 6 9 6 9 9 C11.31 9 13.62 9 16 9 C13 11 13 11 10.5625 11.0625 C6.65390378 9.44186254 5.92180746 6.71107647 4 3 C3.34 2.67 2.68 2.34 2 2 C2.08067001 5.12607441 2.1935229 8.25016751 2.3125 11.375 C2.33505859 12.26445312 2.35761719 13.15390625 2.38085938 14.0703125 C2.41630859 14.92109375 2.45175781 15.771875 2.48828125 16.6484375 C2.51446533 17.43395996 2.54064941 18.21948242 2.56762695 19.02880859 C2.84889597 21.40040156 2.84889597 21.40040156 6 23 C4.02 22.67 2.04 22.34 0 22 C0 14.74 0 7.48 0 0 Z " fill="#EB3D90" transform="translate(513,272)"/>
<path d="M0 0 C0 0.66 0 1.32 0 2 C-0.61746094 2.1959375 -1.23492187 2.391875 -1.87109375 2.59375 C-8.78060492 5.03363827 -14.17578174 8.41679913 -19 14 C-20.20361523 16.5547924 -20.20361523 16.5547924 -21 19 C-21.33 19.66 -21.66 20.32 -22 21 C-22.66 21 -23.32 21 -24 21 C-24.04898437 21.98742187 -24.09796875 22.97484375 -24.1484375 23.9921875 C-24.22320312 25.27351563 -24.29796875 26.55484375 -24.375 27.875 C-24.47941406 29.78925781 -24.47941406 29.78925781 -24.5859375 31.7421875 C-25 35 -25 35 -27 37 C-27.70608593 26.6833 -25.97545504 19.19714626 -19.25 11.1875 C-14.51765425 6.19958995 -7.29159694 0 0 0 Z " fill="#15213D" transform="translate(326,432)"/>
<path d="M0 0 C0.66 0 1.32 0 2 0 C2 6.27 2 12.54 2 19 C-5.5 16.5 -5.5 16.5 -7 14 C-7.58842374 9.53545163 -7.53917589 6.80876383 -5 3 C-4.34 3.33 -3.68 3.66 -3 4 C-3.99 5.485 -3.99 5.485 -5 7 C-5.5 10 -5.5 10 -5 13 C-3.03869191 14.69785481 -3.03869191 14.69785481 -1 16 C-1.01160156 14.92878906 -1.02320313 13.85757812 -1.03515625 12.75390625 C-1.04453299 11.35677257 -1.05363331 9.95963701 -1.0625 8.5625 C-1.07506836 7.50192383 -1.07506836 7.50192383 -1.08789062 6.41992188 C-1.09653588 4.61306441 -1.05220011 2.80612397 -1 1 C-0.67 0.67 -0.34 0.34 0 0 Z " fill="#F34097" transform="translate(498,271)"/>
<path d="M0 0 C0.33 0 0.66 0 1 0 C1 12.87 1 25.74 1 39 C0.67 39 0.34 39 0 39 C-0.33 32.4 -0.66 25.8 -1 19 C-1.33 19 -1.66 19 -2 19 C-2.05380578 16.20807795 -2.09357669 13.4171859 -2.125 10.625 C-2.14175781 9.8309375 -2.15851563 9.036875 -2.17578125 8.21875 C-2.19335473 6.14507985 -2.10335168 4.07116759 -2 2 C-1.34 1.34 -0.68 0.68 0 0 Z " fill="#D9428C" transform="translate(157,678)"/>
<path d="M0 0 C1.32 0 2.64 0 4 0 C4 7.26 4 14.52 4 22 C-2.10442925 20.77911415 -2.66571278 19.90336356 -6 15 C-5.67 14.01 -5.34 13.02 -5 12 C-4.401875 12.94875 -3.80375 13.8975 -3.1875 14.875 C-1.18437474 18.13964197 -1.18437474 18.13964197 2 20 C2 13.73 2 7.46 2 1 C1.34 0.67 0.68 0.34 0 0 Z " fill="#ED3F92" transform="translate(496,306)"/>
<path d="M0 0 C6.6 0 13.2 0 20 0 C20 0.66 20 1.32 20 2 C14.06 2 8.12 2 2 2 C2.99 3.98 3.98 5.96 5 8 C4.6875 10.375 4.6875 10.375 4 12 C3.3291288 10.3767313 2.66342971 8.75132422 2 7.125 C1.62875 6.22007812 1.2575 5.31515625 0.875 4.3828125 C0 2 0 2 0 0 Z " fill="#242241" transform="translate(416,701)"/>
<path d="M0 0 C5 2 5 2 7 4 C5.35 3.67 3.7 3.34 2 3 C2 7.29 2 11.58 2 16 C3.32 15.67 4.64 15.34 6 15 C5.01 16.485 5.01 16.485 4 18 C2.68 18 1.36 18 0 18 C0 12.06 0 6.12 0 0 Z " fill="#E93C8E" transform="translate(513,310)"/>
<path d="M0 0 C1.46513058 0.01988865 2.93011492 0.05558907 4.39453125 0.10546875 C5.14412109 0.11900391 5.89371094 0.13253906 6.66601562 0.14648438 C8.51332892 0.18178336 10.36027191 0.23558958 12.20703125 0.29296875 C12.20703125 0.95296875 12.20703125 1.61296875 12.20703125 2.29296875 C13.19703125 2.62296875 14.18703125 2.95296875 15.20703125 3.29296875 C7.94703125 3.29296875 0.68703125 3.29296875 -6.79296875 3.29296875 C-3.79296875 0.29296875 -3.79296875 0.29296875 0 0 Z " fill="#C73680" transform="translate(699.79296875,443.70703125)"/>
<path d="M0 0 C0.33 0.66 0.66 1.32 1 2 C0.28735352 3.97119141 0.28735352 3.97119141 -0.87109375 6.3515625 C-1.28037109 7.20234375 -1.68964844 8.053125 -2.11132812 8.9296875 C-2.7677832 10.26386719 -2.7677832 10.26386719 -3.4375 11.625 C-3.87126953 12.5221875 -4.30503906 13.419375 -4.75195312 14.34375 C-5.82762755 16.56602245 -6.91054931 18.78445719 -8 21 C-8.33 21 -8.66 21 -9 21 C-9.43248805 15.7861163 -8.01740857 12.20174713 -5.625 7.6875 C-5.14933594 6.73907227 -5.14933594 6.73907227 -4.6640625 5.77148438 C-2.28175731 1.14087865 -2.28175731 1.14087865 0 0 Z " fill="#D83F88" transform="translate(177,232)"/>
<path d="M0 0 C-2.43564823 1.4702102 -4.87380128 2.93589765 -7.31640625 4.39453125 C-8.93378118 5.3621311 -10.54711041 6.33660695 -12.15234375 7.32421875 C-13.73324883 8.27677255 -15.36302001 9.14740625 -17 10 C-17.66 9.67 -18.32 9.34 -19 9 C-16.10538645 5.86644429 -13.2286523 3.75157538 -9.5 1.6875 C-8.5615625 1.15511719 -7.623125 0.62273437 -6.65625 0.07421875 C-3.81912783 -1.07314683 -2.78529507 -1.12331476 0 0 Z " fill="#D84089" transform="translate(235,181)"/>
<path d="M0 0 C4.55768215 1.51922738 5.89391042 4.83537771 8 9 C11.60533444 18.20598756 11.60533444 18.20598756 10 23 C9.7525 22.05125 9.505 21.1025 9.25 20.125 C6.38905103 10.03457418 6.38905103 10.03457418 0 2 C0 1.34 0 0.68 0 0 Z " fill="#151F39" transform="translate(568,708)"/>
<path d="M0 0 C3.14581423 -0.02888514 6.29159469 -0.04675923 9.4375 -0.0625 C10.33533203 -0.07087891 11.23316406 -0.07925781 12.15820312 -0.08789062 C13.01220703 -0.09111328 13.86621094 -0.09433594 14.74609375 -0.09765625 C15.93223267 -0.10551147 15.93223267 -0.10551147 17.14233398 -0.11352539 C19 0 19 0 20 1 C20.04063832 2.66617115 20.042721 4.33388095 20 6 C20.66 6.33 21.32 6.66 22 7 C20.02 7.99 20.02 7.99 18 9 C18 6.36 18 3.72 18 1 C12.06 1 6.12 1 0 1 C0 0.67 0 0.34 0 0 Z " fill="#E83F95" transform="translate(709,700)"/>
<path d="M0 0 C4.14268615 1.38089538 5.3752945 4.2623051 7.5625 7.8125 C7.96146484 8.44220703 8.36042969 9.07191406 8.77148438 9.72070312 C13.07805398 16.57239066 13.07805398 16.57239066 14 19 C13.67 19.99 13.34 20.98 13 22 C12.56429687 21.14277344 12.12859375 20.28554688 11.6796875 19.40234375 C8.31996379 12.95196511 4.91938017 7.39931969 0 2 C0 1.34 0 0.68 0 0 Z " fill="#0D1F39" transform="translate(556,251)"/>
<path d="M0 0 C1.52519276 0.08937803 3.04681929 0.24537146 4.5625 0.4375 C5.38878906 0.53933594 6.21507812 0.64117188 7.06640625 0.74609375 C7.70449219 0.82988281 8.34257812 0.91367187 9 1 C9 1.33 9 1.66 9 2 C6.36 2.33 3.72 2.66 1 3 C-0.32 6.96 -1.64 10.92 -3 15 C-4.03819906 10.84720376 -3.88073931 9.71220417 -2.625 5.8125 C-2.34914063 4.93207031 -2.07328125 4.05164063 -1.7890625 3.14453125 C-1 1 -1 1 0 0 Z " fill="#EB3E94" transform="translate(480,607)"/>
<path d="M0 0 C1.51553092 3.97450493 0.49888623 7.20481149 -0.4375 11.25 C-0.72496094 12.51328125 -1.01242188 13.7765625 -1.30859375 15.078125 C-1.53675781 16.04234375 -1.76492187 17.0065625 -2 18 C-2.33 18 -2.66 18 -3 18 C-3.02712153 16.083412 -3.04645097 14.1667127 -3.0625 12.25 C-3.07410156 11.18265625 -3.08570313 10.1153125 -3.09765625 9.015625 C-3.01510087 6.46631499 -2.74617558 4.42066409 -2 2 C-1.34 2 -0.68 2 0 2 C0 1.34 0 0.68 0 0 Z " fill="#DD418B" transform="translate(163,266)"/>
<path d="M0 0 C0.66 0.33 1.32 0.66 2 1 C1.01 1.66 0.02 2.32 -1 3 C1.97 3.33 4.94 3.66 8 4 C8 4.33 8 4.66 8 5 C3.05 5 -1.9 5 -7 5 C-4.51068299 2.51068299 -3.16125753 1.22371259 0 0 Z " fill="#061E35" transform="translate(548,390)"/>
<path d="M0 0 C1.41750563 0.11509661 2.83401169 0.24253658 4.25 0.375 C5.03890625 0.44460937 5.8278125 0.51421875 6.640625 0.5859375 C9.14478952 1.02541008 10.86957156 1.61427885 13 3 C13.33 3.99 13.66 4.98 14 6 C9.27934033 4.45730076 4.58335908 2.92205381 0 1 C0 0.67 0 0.34 0 0 Z " fill="#DA4089" transform="translate(774,175)"/>
<path d="M0 0 C0.66 0.33 1.32 0.66 2 1 C1.67 1.66 1.34 2.32 1 3 C0.960008 4.99960012 0.95653201 7.00047242 1 9 C0.01 9.33 -0.98 9.66 -2 10 C-2.25 3.375 -2.25 3.375 0 0 Z " fill="#E03B8D" transform="translate(356,754)"/>
<path d="M0 0 C-1.45537568 0.83848804 -2.91440373 1.67063934 -4.375 2.5 C-5.59316406 3.19609375 -5.59316406 3.19609375 -6.8359375 3.90625 C-9 5 -9 5 -11 5 C-11.33 5.99 -11.66 6.98 -12 8 C-12.66 7.67 -13.32 7.34 -14 7 C-14 6.34 -14 5.68 -14 5 C-12.23628182 3.96692229 -10.46374967 2.94887951 -8.6875 1.9375 C-7.70136719 1.36902344 -6.71523438 0.80054688 -5.69921875 0.21484375 C-3 -1 -3 -1 0 0 Z " fill="#0E203B" transform="translate(630,340)"/>
<path d="M0 0 C0.66 0 1.32 0 2 0 C2 5.94 2 11.88 2 18 C1.67 18 1.34 18 1 18 C0.83156069 15.75013201 0.66531346 13.50009983 0.5 11.25 C0.4071875 9.99703125 0.314375 8.7440625 0.21875 7.453125 C0.06161598 4.97265229 0 2.48544483 0 0 Z " fill="#E53F8E" transform="translate(498,271)"/>
<path d="M0 0 C6.4 0.49230769 6.4 0.49230769 9.4375 3.0625 C10.2109375 4.0215625 10.2109375 4.0215625 11 5 C7.80389448 5 6.58282374 4.45328458 3.8125 3 C3.09707031 2.62875 2.38164063 2.2575 1.64453125 1.875 C1.10183594 1.58625 0.55914063 1.2975 0 1 C0 0.67 0 0.34 0 0 Z " fill="#D84089" transform="translate(788,181)"/>
<path d="M0 0 C0.99 0.33 1.98 0.66 3 1 C1.02 2.98 -0.96 4.96 -3 7 C-3.99 6.67 -4.98 6.34 -6 6 C-4.02 4.02 -2.04 2.04 0 0 Z " fill="#142543" transform="translate(392,391)"/>
<path d="M0 0 C1.67542976 0.28604898 3.34385343 0.61781233 5 1 C1.57905758 3.28062828 0.31812778 3.21925007 -3.6875 3.125 C-5.17830078 3.09792969 -5.17830078 3.09792969 -6.69921875 3.0703125 C-7.45847656 3.04710937 -8.21773438 3.02390625 -9 3 C-9 2.67 -9 2.34 -9 2 C-6.94921875 1.77213542 -4.8984375 1.54427083 -2.84765625 1.31640625 C-0.98859771 1.18113386 -0.98859771 1.18113386 0 0 Z " fill="#0A1E33" transform="translate(465,392)"/>
<path d="M0 0 C3.81684226 1.55500981 6.19195732 4.03595495 9 7 C5.56072421 5.7580393 2.74792181 4.44259716 0 2 C0 1.34 0 0.68 0 0 Z " fill="#11213B" transform="translate(306,481)"/>
<path d="M0 0 C0.33 0 0.66 0 1 0 C1 2.31 1 4.62 1 7 C0.67 7 0.34 7 0 7 C0 4.69 0 2.38 0 0 Z " fill="#CA4387" transform="translate(154,715)"/>
<path d="M0 0 C1.98 0 3.96 0 6 0 C6 0.33 6 0.66 6 1 C4.02 1 2.04 1 0 1 C0 0.67 0 0.34 0 0 Z " fill="#CB4284" transform="translate(720,862)"/>
<path d="M0 0 C1.65 0 3.3 0 5 0 C5 0.33 5 0.66 5 1 C3.35 1 1.7 1 0 1 C0 0.67 0 0.34 0 0 Z " fill="#CC4286" transform="translate(298,862)"/>
<path d="M0 0 C0.33 0 0.66 0 1 0 C1 1.65 1 3.3 1 5 C0.67 5 0.34 5 0 5 C0 3.35 0 1.7 0 0 Z " fill="#CD4389" transform="translate(153,627)"/>
<path d="M0 0 C4 1 4 1 4 1 Z " fill="#CD4186" transform="translate(729,861)"/>
<path d="M0 0 C4 1 4 1 4 1 Z " fill="#CC4186" transform="translate(288,861)"/>
<path d="M0 0 C4 1 4 1 4 1 Z " fill="#CA4283" transform="translate(764,855)"/>
<path d="M0 0 C0.99 0 1.98 0 3 0 C2.67 0.66 2.34 1.32 2 2 C1.34 1.34 0.68 0.68 0 0 Z " fill="#CB4185" transform="translate(249,853)"/>
<path d="M0 0 C1 4 1 4 1 4 Z " fill="#CD4589" transform="translate(154,708)"/>
<path d="M0 0 C1 4 1 4 1 4 Z " fill="#CB4488" transform="translate(153,333)"/>
<path d="M0 0 C4 1 4 1 4 1 Z " fill="#CA4689" transform="translate(256,168)"/>
<path d="M0 0 C3 1 3 1 3 1 Z " fill="#CC4284" transform="translate(484,863)"/>
<path d="M0 0 C3 1 3 1 3 1 Z " fill="#CA4284" transform="translate(273,859)"/>
<path d="" fill="#C84387" transform="translate(0,0)"/>
<path d="M0 0 C0.33 0.66 0.66 1.32 1 2 C0.34 1.67 -0.32 1.34 -1 1 C-0.67 0.67 -0.34 0.34 0 0 Z " fill="#CC4589" transform="translate(154,700)"/>
<path d="" fill="#CE4488" transform="translate(0,0)"/>
<path d="" fill="#CE4388" transform="translate(0,0)"/>
<path d="" fill="#CC4488" transform="translate(0,0)"/>
<path d="" fill="#CD4589" transform="translate(0,0)"/>
<path d="" fill="#CD458A" transform="translate(0,0)"/>
<path d="" fill="#CA4488" transform="translate(0,0)"/>
<path d="M0 0 C2 1 2 1 2 1 Z " fill="#CB4285" transform="translate(701,863)"/>
<path d="M0 0 C2 1 2 1 2 1 Z " fill="#CC4387" transform="translate(656,863)"/>
<path d="M0 0 C2 1 2 1 2 1 Z " fill="#CE4086" transform="translate(645,863)"/>
<path d="M0 0 C2 1 2 1 2 1 Z " fill="#CC4386" transform="translate(624,863)"/>
<path d="M0 0 C2 1 2 1 2 1 Z " fill="#CE4386" transform="translate(592,863)"/>
<path d="M0 0 C2 1 2 1 2 1 Z " fill="#CD4185" transform="translate(581,863)"/>
<path d="M0 0 C2 1 2 1 2 1 Z " fill="#CC4286" transform="translate(552,863)"/>
<path d="M0 0 C2 1 2 1 2 1 Z " fill="#CC4185" transform="translate(536,863)"/>
<path d="M0 0 C2 1 2 1 2 1 Z " fill="#CC4386" transform="translate(448,863)"/>
<path d="M0 0 C2 1 2 1 2 1 Z " fill="#CD4285" transform="translate(437,863)"/>
<path d="M0 0 C2 1 2 1 2 1 Z " fill="#CE4084" transform="translate(429,863)"/>
<path d="M0 0 C2 1 2 1 2 1 Z " fill="#CD4387" transform="translate(384,863)"/>
<path d="M0 0 C2 1 2 1 2 1 Z " fill="#CD4488" transform="translate(352,863)"/>
<path d="M0 0 C2 1 2 1 2 1 Z " fill="#CE4284" transform="translate(325,863)"/>
<path d="M0 0 C2 1 2 1 2 1 Z " fill="#CB4386" transform="translate(320,863)"/>
<path d="M0 0 C2 1 2 1 2 1 Z " fill="#CB4184" transform="translate(736,861)"/>
<path d="M0 0 C2 1 2 1 2 1 Z " fill="#CB4185" transform="translate(281,860)"/>
<path d="" fill="#C94184" transform="translate(0,0)"/>
<path d="" fill="#CB4285" transform="translate(0,0)"/>
<path d="M0 0 C2 1 2 1 2 1 Z " fill="#CB4183" transform="translate(217,838)"/>
<path d="M0 0 C2 1 2 1 2 1 Z " fill="#C84383" transform="translate(196,822)"/>
<path d="" fill="#C84285" transform="translate(0,0)"/>
<path d="" fill="#CB4086" transform="translate(0,0)"/>
<path d="M0 0 C2 1 2 1 2 1 Z " fill="#C94285" transform="translate(163,769)"/>
<path d="" fill="#CC4387" transform="translate(0,0)"/>
<path d="" fill="#CA4486" transform="translate(0,0)"/>
<path d="" fill="#CB4487" transform="translate(0,0)"/>
<path d="" fill="#CF4488" transform="translate(0,0)"/>
<path d="" fill="#CE4587" transform="translate(0,0)"/>
<path d="" fill="#CC4487" transform="translate(0,0)"/>
<path d="" fill="#CB4386" transform="translate(0,0)"/>
<path d="" fill="#CC4588" transform="translate(0,0)"/>
<path d="" fill="#CD458A" transform="translate(0,0)"/>
<path d="" fill="#CB4588" transform="translate(0,0)"/>
<path d="" fill="#CA4488" transform="translate(0,0)"/>
<path d="" fill="#CA4489" transform="translate(0,0)"/>
<path d="" fill="#CA4486" transform="translate(0,0)"/>
<path d="M0 0 C2 1 2 1 2 1 Z " fill="#CC4489" transform="translate(232,177)"/>
<path d="M0 0 C2 1 2 1 2 1 Z " fill="#CC4387" transform="translate(769,170)"/>
<path d="" fill="#1B0810" transform="translate(0,0)"/>
<path d="" fill="#CB4286" transform="translate(0,0)"/>
<path d="" fill="#CB4386" transform="translate(0,0)"/>
<path d="" fill="#CE4385" transform="translate(0,0)"/>
<path d="" fill="#CF4486" transform="translate(0,0)"/>
<path d="" fill="#CE4386" transform="translate(0,0)"/>
<path d="" fill="#CE4588" transform="translate(0,0)"/>
<path d="" fill="#CE4488" transform="translate(0,0)"/>
<path d="" fill="#CC4186" transform="translate(0,0)"/>
<path d="" fill="#CC4187" transform="translate(0,0)"/>
<path d="" fill="#CD4185" transform="translate(0,0)"/>
<path d="" fill="#CF4387" transform="translate(0,0)"/>
<path d="" fill="#CD4385" transform="translate(0,0)"/>
<path d="" fill="#CC4386" transform="translate(0,0)"/>
<path d="" fill="#CE4385" transform="translate(0,0)"/>
<path d="" fill="#CE4187" transform="translate(0,0)"/>
<path d="" fill="#CC4486" transform="translate(0,0)"/>
<path d="" fill="#CE4488" transform="translate(0,0)"/>
<path d="" fill="#CE4288" transform="translate(0,0)"/>
<path d="" fill="#CD4486" transform="translate(0,0)"/>
<path d="" fill="#CC4288" transform="translate(0,0)"/>
<path d="" fill="#CF4186" transform="translate(0,0)"/>
<path d="" fill="#CE4487" transform="translate(0,0)"/>
<path d="" fill="#CC4287" transform="translate(0,0)"/>
<path d="" fill="#CD4288" transform="translate(0,0)"/>
<path d="" fill="#CB4487" transform="translate(0,0)"/>
<path d="" fill="#CD4286" transform="translate(0,0)"/>
<path d="" fill="#CC4287" transform="translate(0,0)"/>
<path d="" fill="#CB4386" transform="translate(0,0)"/>
<path d="" fill="#CC4386" transform="translate(0,0)"/>
<path d="" fill="#CE4387" transform="translate(0,0)"/>
<path d="" fill="#CC4387" transform="translate(0,0)"/>
<path d="" fill="#CD4287" transform="translate(0,0)"/>
<path d="" fill="#CC4286" transform="translate(0,0)"/>
<path d="" fill="#CC4286" transform="translate(0,0)"/>
<path d="" fill="#CD4288" transform="translate(0,0)"/>
<path d="" fill="#CF4187" transform="translate(0,0)"/>
<path d="" fill="#CD4386" transform="translate(0,0)"/>
<path d="" fill="#CD4286" transform="translate(0,0)"/>
<path d="" fill="#CD4386" transform="translate(0,0)"/>
<path d="" fill="#CD4387" transform="translate(0,0)"/>
<path d="" fill="#D04187" transform="translate(0,0)"/>
<path d="" fill="#CF4387" transform="translate(0,0)"/>
<path d="" fill="#CC4486" transform="translate(0,0)"/>
<path d="" fill="#CD4386" transform="translate(0,0)"/>
<path d="" fill="#CC4488" transform="translate(0,0)"/>
<path d="" fill="#CE4288" transform="translate(0,0)"/>
<path d="" fill="#CB4388" transform="translate(0,0)"/>
<path d="" fill="#CD4287" transform="translate(0,0)"/>
<path d="" fill="#CD4387" transform="translate(0,0)"/>
<path d="" fill="#CA4285" transform="translate(0,0)"/>
<path d="" fill="#CE4387" transform="translate(0,0)"/>
<path d="" fill="#CA4686" transform="translate(0,0)"/>
<path d="" fill="#CA4483" transform="translate(0,0)"/>
<path d="" fill="#CD4386" transform="translate(0,0)"/>
<path d="" fill="#CB4284" transform="translate(0,0)"/>
<path d="" fill="#CB4385" transform="translate(0,0)"/>
<path d="" fill="#CA4384" transform="translate(0,0)"/>
<path d="" fill="#C84284" transform="translate(0,0)"/>
<path d="" fill="#CC4385" transform="translate(0,0)"/>
<path d="" fill="#CA4085" transform="translate(0,0)"/>
<path d="" fill="#CB4085" transform="translate(0,0)"/>
<path d="" fill="#CA3E81" transform="translate(0,0)"/>
<path d="" fill="#CB4284" transform="translate(0,0)"/>
<path d="" fill="#CD4385" transform="translate(0,0)"/>
<path d="" fill="#CB4186" transform="translate(0,0)"/>
<path d="" fill="#CB4286" transform="translate(0,0)"/>
<path d="" fill="#CC4184" transform="translate(0,0)"/>
<path d="" fill="#C53F81" transform="translate(0,0)"/>
<path d="" fill="#C94584" transform="translate(0,0)"/>
<path d="" fill="#CA4285" transform="translate(0,0)"/>
<path d="" fill="#C84284" transform="translate(0,0)"/>
<path d="" fill="#CB4286" transform="translate(0,0)"/>
<path d="" fill="#CB4082" transform="translate(0,0)"/>
<path d="" fill="#C53F83" transform="translate(0,0)"/>
<path d="" fill="#C44384" transform="translate(0,0)"/>
<path d="" fill="#C54282" transform="translate(0,0)"/>
<path d="" fill="#C44384" transform="translate(0,0)"/>
<path d="" fill="#CB4387" transform="translate(0,0)"/>
<path d="" fill="#C84383" transform="translate(0,0)"/>
<path d="" fill="#C94485" transform="translate(0,0)"/>
<path d="" fill="#C64183" transform="translate(0,0)"/>
<path d="" fill="#CA4586" transform="translate(0,0)"/>
<path d="" fill="#CB4488" transform="translate(0,0)"/>
<path d="" fill="#CB4488" transform="translate(0,0)"/>
<path d="" fill="#CC4488" transform="translate(0,0)"/>
<path d="" fill="#CD4288" transform="translate(0,0)"/>
<path d="" fill="#CC4488" transform="translate(0,0)"/>
<path d="" fill="#CE4285" transform="translate(0,0)"/>
<path d="" fill="#CD4489" transform="translate(0,0)"/>
<path d="" fill="#CB4385" transform="translate(0,0)"/>
<path d="" fill="#CD448A" transform="translate(0,0)"/>
<path d="" fill="#CD4386" transform="translate(0,0)"/>
<path d="" fill="#CD4486" transform="translate(0,0)"/>
<path d="" fill="#CB4588" transform="translate(0,0)"/>
<path d="" fill="#C94587" transform="translate(0,0)"/>
<path d="" fill="#CE4386" transform="translate(0,0)"/>
<path d="" fill="#CC4488" transform="translate(0,0)"/>
<path d="" fill="#CD4388" transform="translate(0,0)"/>
<path d="" fill="#CE448A" transform="translate(0,0)"/>
<path d="" fill="#CD4489" transform="translate(0,0)"/>
<path d="" fill="#CF468B" transform="translate(0,0)"/>
<path d="" fill="#CD478B" transform="translate(0,0)"/>
<path d="" fill="#CD4489" transform="translate(0,0)"/>
<path d="" fill="#CC4488" transform="translate(0,0)"/>
<path d="" fill="#D04488" transform="translate(0,0)"/>
<path d="" fill="#CD4688" transform="translate(0,0)"/>
<path d="" fill="#CD4489" transform="translate(0,0)"/>
<path d="" fill="#CC4389" transform="translate(0,0)"/>
<path d="" fill="#CD448A" transform="translate(0,0)"/>
<path d="" fill="#C94688" transform="translate(0,0)"/>
<path d="" fill="#CC4284" transform="translate(0,0)"/>
<path d="" fill="#CB4486" transform="translate(0,0)"/>
<path d="" fill="#CB4587" transform="translate(0,0)"/>
<path d="" fill="#CB4488" transform="translate(0,0)"/>
<path d="" fill="#CC4487" transform="translate(0,0)"/>
<path d="" fill="#CD4689" transform="translate(0,0)"/>
<path d="" fill="#CE4489" transform="translate(0,0)"/>
<path d="" fill="#CA4387" transform="translate(0,0)"/>
<path d="" fill="#CC438A" transform="translate(0,0)"/>
<path d="" fill="#CC4788" transform="translate(0,0)"/>
<path d="" fill="#C84385" transform="translate(0,0)"/>
<path d="" fill="#CB4386" transform="translate(0,0)"/>
<path d="" fill="#CB4689" transform="translate(0,0)"/>
<path d="" fill="#CA4384" transform="translate(0,0)"/>
<path d="" fill="#CA4586" transform="translate(0,0)"/>
<path d="" fill="#CA4387" transform="translate(0,0)"/>
<path d="" fill="#C84385" transform="translate(0,0)"/>
<path d="" fill="#CB4386" transform="translate(0,0)"/>
<path d="" fill="#CC4588" transform="translate(0,0)"/>
<path d="" fill="#CB4488" transform="translate(0,0)"/>
<path d="" fill="#CD4589" transform="translate(0,0)"/>
<path d="" fill="#C54582" transform="translate(0,0)"/>
<path d="" fill="#C84288" transform="translate(0,0)"/>
<path d="" fill="#CA4588" transform="translate(0,0)"/>
<path d="" fill="#CB4484" transform="translate(0,0)"/>
<path d="" fill="#CA4488" transform="translate(0,0)"/>
<path d="" fill="#CB4186" transform="translate(0,0)"/>
<path d="" fill="#CB4489" transform="translate(0,0)"/>
<path d="" fill="#CB4389" transform="translate(0,0)"/>
<path d="" fill="#CC4389" transform="translate(0,0)"/>
<path d="" fill="#CB4387" transform="translate(0,0)"/>
<path d="" fill="#CA4389" transform="translate(0,0)"/>
<path d="" fill="#C94387" transform="translate(0,0)"/>
</svg>
